<svg width="159" height="68" viewBox="0 0 159 68" fill="none" xmlns="http://www.w3.org/2000/svg">
<path d="M155.786 38.1072V38.5928H154.751V40.2163H154.023V38.5928H152.988V38.1072H155.788H155.786ZM155.714 40.2142V38.1051H156.298L157.268 39.1649L158.238 38.1051H158.822V40.2142H158.105V39.2198L157.456 39.9038H157.08L156.431 39.2092V40.2142H155.714Z" fill="#341756"/>
<path d="M156.625 23.2781C155.394 22.9128 154.068 23.3921 153.351 24.4582C151.002 27.9481 147.911 32.4259 145.157 34.1001C143.614 35.0375 141.56 34.4379 140.829 32.7848C138.067 26.5441 149.52 9.13091 152.817 4.32792C153.327 3.58478 153.19 2.57562 152.503 1.99504C151.894 1.48202 151.139 0.92466 150.473 0.658649C149.113 0.11607 147.555 0.694539 146.884 1.99926C145.933 3.85079 144.365 7.71007 138.375 18.511C136.863 17.7108 135.073 16.8136 133.416 16.9592C125.69 16.9297 118.269 25.4695 119.515 33.9502C119.205 35.5927 114.781 37.383 112.673 34.2479C109.869 31.3091 123.736 22.6764 118.191 21.5638C116.31 20.998 115.827 19.9698 114.967 19.1106C107.088 12.3822 95.3924 22.0937 92.5145 31.1866C91.7048 32.1219 88.907 34.6152 86.925 34.8876C82.7609 35.4597 89.7524 25.2035 91.7238 22.3914C92.7696 20.8988 93.8364 19.2035 92.3099 18.2893C90.8804 17.4322 87.604 16.0324 85.6811 18.9797C84.1314 20.9959 75.995 35.1832 71.1984 34.6912C70.8505 34.6554 70.9074 33.8214 71.0634 32.8904C71.3734 30.8742 73.8655 26.2929 75.5691 23.4998C78.0486 19.9318 78.4302 19.3618 75.6408 17.6538C72.883 16.1697 72.6785 16.9593 70.4562 19.9318C68.5565 22.7862 66.1255 27.3295 65.3264 30.2324C63.6819 31.1782 59.9078 32.542 58.1009 32.8714C58.1009 32.8714 66.9879 19.8917 60.8566 20.3878C58.5711 20.6517 57.3524 16.9635 53.4792 16.9635C43.2345 16.7249 32.5195 39.4013 45.6549 40.8982C46.6016 40.8264 45.4968 43.0474 45.4082 43.2437C45.1847 43.7378 44.6281 44.9496 44.3603 45.5365C42.9941 45.1924 40.4956 44.5632 39.0977 44.2107C38.1637 31.2099 19.3925 29.9157 17.0522 22.3133C14.9733 15.5553 27.0734 6.59746 38.3408 6.06544C43.0763 6.18156 43.4474 11.7762 38.4484 13.9445C36.0469 14.9874 28.2015 16.9001 31.9144 20.2548C31.9544 20.2928 31.9945 20.3287 32.0346 20.3646C33.6391 21.8214 35.9731 22.1444 37.9128 21.1795C44.4362 17.9325 50.9681 11.886 46.8188 4.53271C44.6724 0.890881 40.5272 -0.149942 36.4432 0.0168428C25.2117 0.139293 3.01854 11.8079 8.11458 26.2274C11.5576 35.9706 40.6706 37.6955 30.1707 50.8229C26.4451 55.457 20.9717 59.462 14.8805 58.8772C-1.76967 55.6323 11.9055 42.6505 30.0484 48.8405C32.6017 41.6899 21.5536 41.0798 18.022 41.3479C-5.07777 43.0938 -6.39342 65.1411 16.5208 65.5866C25.5512 65.1939 34.6912 58.6154 37.8854 51.0721C38.8616 51.2769 40.6791 51.697 41.9272 51.9841C40.1667 57.8701 39.5679 64.8519 46.007 66.942C57.7762 69.6338 70.2517 47.6245 62.5855 37.6195C62.8638 37.3408 63.4225 37.4041 64.9891 36.4393C67.7342 44.1917 75.5101 40.3429 79.7417 35.9896C78.9531 38.0649 81.7088 41.3289 85.6136 40.894C87.2371 40.894 90.6253 39.0657 92.3563 38.0312C97.368 43.3155 102 40.5224 107.689 36.0509C110.797 42.3444 117.607 41.5885 121.048 38.9875C125.353 42.1058 128.208 41.464 132.296 37.6554C133.69 36.414 134.156 35.9474 134.466 35.9474C138.75 42.1734 144.797 41.0016 150.393 36.0614C152.406 34.3556 155.847 31.1972 158.171 27.4752C159.336 25.6595 159.636 24.169 156.625 23.276V23.2781ZM46.163 35.1388C43.9893 32.2127 52.8109 19.0683 54.5461 24.8425C54.5461 25.6975 53.3464 28.5582 50.5043 32.8714C47.8603 36.8848 46.7218 36.2324 46.163 35.1388ZM50.5001 59.9623C46.2811 62.7534 46.3275 58.9131 48.0943 53.5907C54.2699 55.8392 58.2105 54.0679 50.5001 59.9623ZM58.0482 49.723C55.4295 49.0918 52.8425 48.393 50.3335 47.6773C52.1067 43.4992 53.9642 39.9481 54.2193 39.9481C58.6554 40.8327 59.6611 45.1818 58.0482 49.7209V49.723ZM110.558 23.8777C107.564 30.2197 100.421 35.8355 99.1665 34.8433C95.9701 34.8433 100.636 24.2746 108.722 22.4188C109.719 22.0473 111.028 22.6679 110.558 23.8756V23.8777ZM126.732 34.2479C126.15 34.4506 125.545 34.3915 125.477 33.7792C124.493 27.4013 130.59 22.6088 132.914 22.6088C136.038 22.915 131.564 32.561 126.732 34.2479Z" fill="#341756"/>
<path d="M97.115 44.3078C88.2723 43.8053 95.1183 52.6238 76.8173 52.3747C68.4764 52.2607 67.7005 49.172 63.3487 57.0193C74.4517 59.0672 92.4681 59.2319 98.8207 48.3423C100.06 45.7054 100.103 44.4788 97.115 44.3078Z" fill="#341756"/>
<path d="M53.0049 14.7995C51.9886 14.7995 51.1263 14.4575 50.4158 13.7671C49.7031 13.0767 49.3468 12.2766 49.3468 11.0648C49.3468 9.85294 49.6947 8.93878 50.3926 8.2632C51.0905 7.58762 51.9359 7.2456 52.9227 7.2456C53.6121 7.2456 54.2067 7.40183 54.7043 7.72062C55.2019 8.03941 55.594 8.42576 55.885 8.87967L54.348 10.0683L54.2594 10.0239C54.2067 9.45181 54.0591 8.90923 53.8145 8.40465C53.57 7.90007 53.2432 7.64673 52.8341 7.64673C52.4483 7.64673 52.1215 7.87685 51.8537 8.33709C51.5859 8.79734 51.4531 9.40747 51.4531 10.1717C51.4531 11.145 51.6766 11.7741 52.1278 12.361C52.5811 12.948 53.182 13.2372 53.9305 13.2372C54.8582 13.2372 55.5624 12.7622 56.0389 11.8185L56.1654 11.8776C56.0326 12.6735 55.7058 13.3554 55.185 13.9276C54.6663 14.4997 53.9389 14.7826 53.0112 14.7826L53.0028 14.7974L53.0049 14.7995Z" fill="#341756"/>
<path d="M61.8075 9.8656C61.8075 9.39058 61.6958 9.03379 61.4807 8.78889C61.2657 8.54399 60.9916 8.42365 60.6648 8.42365C60.1229 8.42365 59.6401 8.74244 59.2184 9.38214V13.0155C59.2184 13.5644 59.2711 13.9297 59.3744 14.1155C59.4777 14.3012 59.716 14.4955 60.0871 14.696V14.7995H55.982V14.696C56.3678 14.4955 56.6124 14.3012 56.7178 14.1155C56.8232 13.9297 56.8738 13.5644 56.8738 13.0155V6.73891C56.8738 6.25545 56.8359 5.88387 56.7705 5.63264C56.7031 5.3793 56.6229 5.20829 56.5323 5.11962C56.4416 5.03095 56.2582 4.89583 55.982 4.71005V4.6066C57.1184 4.52426 58.1937 4.33214 59.21 4.02601V8.848C59.9142 7.78607 60.7913 7.24982 61.8371 7.24982C62.0901 7.24982 62.3346 7.28782 62.5708 7.36172C62.809 7.43561 63.0452 7.5475 63.2834 7.70373C63.5217 7.85996 63.7135 8.09853 63.8632 8.40887C64.0108 8.72133 64.0867 9.0929 64.0867 9.52992V13.0155H64.1015C64.1015 13.5644 64.1542 13.9297 64.2575 14.1155C64.3608 14.3012 64.6054 14.4955 64.9912 14.696V14.7995H60.8714V14.696C61.2572 14.4955 61.5103 14.3012 61.622 14.1155C61.7337 13.9297 61.7928 13.5644 61.7928 13.0155L61.8075 9.8656Z" fill="#341756"/>
<path d="M73.368 14.7108C73.7538 14.5103 73.9984 14.316 74.1017 14.1302C74.205 13.9444 74.2577 13.5792 74.2577 13.0303V9.80438C74.2577 9.21746 74.205 8.80789 74.0954 8.57777C73.9857 8.34765 73.7391 8.12386 73.3617 7.90852V7.80507C74.4159 7.74596 75.4764 7.55172 76.539 7.22449L76.5095 8.74878H76.539C76.6719 8.36876 76.9164 8.02886 77.2728 7.7164C77.6291 7.40394 78.0824 7.24771 78.6243 7.24771C78.8773 7.24771 79.1134 7.30682 79.3369 7.41872L79.0333 9.86349H78.93C78.2911 9.03168 77.7577 8.61577 77.3192 8.62211C77.0071 8.62211 76.7625 8.80789 76.5917 9.17946V13.0134C76.5917 13.5623 76.6592 13.9276 76.792 14.1133C76.9249 14.2991 77.2454 14.4934 77.7493 14.6939V14.7974H73.3553L73.3701 14.7087L73.368 14.7108Z" fill="#341756"/>
<path d="M82.9571 14.7995C81.9408 14.7995 81.0785 14.4575 80.3679 13.7671C79.6553 13.0767 79.299 12.2766 79.299 11.0648C79.299 9.85294 79.6468 8.93878 80.3447 8.2632C81.0426 7.58762 81.8881 7.2456 82.8748 7.2456C83.5643 7.2456 84.1589 7.40183 84.6564 7.72062C85.154 8.03941 85.5462 8.42576 85.8372 8.87967L84.3001 10.0683L84.2116 10.0239C84.1589 9.45181 84.0113 8.90923 83.7667 8.40465C83.5221 7.90007 83.1953 7.64673 82.7863 7.64673C82.4004 7.64673 82.0736 7.87685 81.8059 8.33709C81.5381 8.79734 81.4053 9.40747 81.4053 10.1717C81.4053 11.145 81.6288 11.7741 82.0799 12.361C82.5333 12.948 83.1342 13.2372 83.8827 13.2372C84.8104 13.2372 85.5146 12.7622 85.9911 11.8185L86.1176 11.8776C85.9847 12.6735 85.6579 13.3554 85.1372 13.9276C84.6185 14.4997 83.8911 14.7826 82.9634 14.7826L82.9549 14.7974L82.9571 14.7995Z" fill="#341756"/>
<path d="M91.7597 9.8656C91.7597 9.39058 91.6479 9.03379 91.4329 8.78889C91.2178 8.54399 90.9437 8.42365 90.6169 8.42365C90.0751 8.42365 89.5922 8.74244 89.1706 9.38214V13.0155C89.1706 13.5644 89.2233 13.9297 89.3266 14.1155C89.4299 14.3012 89.6681 14.4955 90.0392 14.696V14.7995H85.9362V14.696C86.3221 14.4955 86.5667 14.3012 86.67 14.1155C86.7733 13.9297 86.826 13.5644 86.826 13.0155V6.73891C86.826 6.25545 86.788 5.88387 86.7227 5.63264C86.6552 5.3793 86.5751 5.20829 86.4844 5.11962C86.3938 5.03095 86.2103 4.89583 85.9362 4.71005V4.6066C87.0706 4.52426 88.148 4.33214 89.1642 4.02601V8.848C89.8684 7.78607 90.7455 7.24982 91.7913 7.24982C92.0443 7.24982 92.2889 7.28782 92.525 7.36172C92.7633 7.43561 92.9994 7.5475 93.2377 7.70373C93.4759 7.85996 93.6678 8.09853 93.8175 8.40887C93.9651 8.72133 94.041 9.0929 94.041 9.52992V13.0155H94.0558C94.0558 13.5644 94.1085 13.9297 94.2118 14.1155C94.3151 14.3012 94.5597 14.4955 94.9455 14.696V14.7995H90.8257V14.696C91.2115 14.4955 91.4645 14.3012 91.5763 14.1155C91.688 13.9297 91.747 13.5644 91.747 13.0155L91.7618 9.8656H91.7597Z" fill="#341756"/>
<path d="M110.495 13.024C110.495 13.5729 110.548 13.9381 110.651 14.1239C110.754 14.3097 110.999 14.5039 111.385 14.7045V14.8079H107.267V14.7045C107.676 14.4891 107.927 14.2886 108.024 14.1028C108.121 13.917 108.18 13.5602 108.201 13.0324C108.21 12.6228 108.216 11.5757 108.216 9.88249C108.216 9.41381 108.104 9.06546 107.889 8.82689C107.674 8.58833 107.415 8.4701 107.109 8.4701C106.626 8.4701 106.196 8.78256 105.819 9.39903V13.0324C105.819 13.5813 105.871 13.9466 105.975 14.1323C106.078 14.3181 106.323 14.5124 106.71 14.7129V14.8164H102.591V14.7129C102.976 14.5124 103.229 14.3181 103.341 14.1323C103.453 13.9466 103.512 13.5813 103.518 13.0324C103.527 12.7495 103.533 12.0064 103.533 10.7966C103.533 9.87405 103.459 9.25758 103.31 8.94723C103.162 8.63477 102.894 8.47854 102.508 8.47854C101.96 8.47854 101.498 8.791 101.127 9.42225V13.0409C101.127 13.5919 101.18 13.955 101.283 14.1408C101.387 14.3266 101.625 14.5208 101.996 14.7214V14.8248H97.891V14.7214C98.2768 14.5208 98.5214 14.3266 98.6268 14.1408C98.7301 13.955 98.7828 13.5919 98.7828 13.0409V9.94161C98.7828 9.27236 98.7301 8.82689 98.6268 8.6031C98.5235 8.37932 98.2789 8.1492 97.891 7.91907V7.81563C98.922 7.75651 99.9846 7.56228 101.068 7.23504V8.89234C101.737 7.80718 102.582 7.2646 103.607 7.2646C104.06 7.2646 104.497 7.39127 104.92 7.64462C105.344 7.89796 105.618 8.31387 105.736 8.88601C106.411 7.80085 107.265 7.25827 108.29 7.25827C108.519 7.25827 108.758 7.29627 108.994 7.37016C109.232 7.44405 109.468 7.55595 109.698 7.70373C109.928 7.85152 110.122 8.08375 110.269 8.3941C110.417 8.70655 110.493 9.07812 110.493 9.50248V13.024H110.495Z" fill="#341756"/>
<path d="M118.343 12.0106C118.284 12.2998 118.195 12.5827 118.075 12.8508C117.957 13.119 117.786 13.4166 117.556 13.7354C117.326 14.0542 117 14.3076 116.576 14.5018C116.152 14.696 115.663 14.791 115.106 14.791C114.022 14.791 113.124 14.4427 112.405 13.7502C111.686 13.0599 111.341 12.2703 111.341 11.1028C111.341 9.93527 111.688 9.02957 112.386 8.31598C113.084 7.60239 113.989 7.2456 115.102 7.2456C115.682 7.2456 116.192 7.34905 116.639 7.55806C117.084 7.76707 117.419 8.02674 117.649 8.3392C117.879 8.65166 118.05 8.95568 118.153 9.25336C118.256 9.55103 118.309 9.83394 118.309 10.0936V10.2794H113.449V10.4884C113.449 11.4553 113.706 12.0359 114.231 12.5025C114.756 12.9691 115.389 13.2076 116.116 13.2076C117.103 13.2161 117.809 12.7981 118.231 11.9599L118.343 12.0127V12.0106ZM114.859 7.63195C114.465 7.63195 114.147 7.83251 113.909 8.23364C113.67 8.63477 113.529 9.19213 113.478 9.90572L116.194 9.87616C116.186 9.65237 116.165 9.4307 116.127 9.20691C116.089 8.98312 116.023 8.74667 115.926 8.49332C115.829 8.23998 115.688 8.03308 115.503 7.87685C115.317 7.72062 115.102 7.63195 114.857 7.63195H114.859Z" fill="#341756"/>
<path d="M127.09 14.7003C127.476 14.4997 127.721 14.3055 127.826 14.1197C127.93 13.9339 127.982 13.5708 127.982 13.0197V9.93527C127.982 9.45181 127.944 9.08024 127.879 8.829C127.811 8.57566 127.731 8.40465 127.641 8.31598C127.55 8.22731 127.367 8.09219 127.09 7.92119V7.81774C128.174 7.7354 129.249 7.53483 130.318 7.21604V13.0134C130.318 13.5623 130.371 13.9276 130.474 14.1133C130.578 14.2991 130.822 14.4934 131.202 14.6939V14.7974H127.082L127.09 14.7003ZM128.975 6.34834C128.642 6.34834 128.351 6.23011 128.107 5.99999C127.862 5.76987 127.742 5.49541 127.742 5.18295C127.742 4.8705 127.868 4.61082 128.113 4.3807C128.358 4.15058 128.646 4.03235 128.982 4.03235C129.317 4.03235 129.606 4.14424 129.842 4.37436C130.08 4.60449 130.198 4.87261 130.198 5.17662C130.198 5.50386 130.08 5.77831 129.842 6.0021C129.604 6.22589 129.323 6.33567 128.988 6.33567L128.973 6.35045L128.975 6.34834Z" fill="#341756"/>
<path d="M127.272 14.6855C126.892 14.4849 126.582 14.2991 126.477 14.1133C126.374 13.9276 126.321 13.5623 126.321 13.0134L126.315 4.02601C125.298 4.33003 124.229 4.52426 123.108 4.6066V4.71005C123.694 5.02884 123.991 5.47641 123.991 6.04855V7.97397C123.411 7.4905 122.722 7.2456 121.921 7.2456C121.119 7.2456 120.348 7.58762 119.717 8.27164C119.087 8.95568 118.766 9.92894 118.766 11.1851C118.766 12.4413 119.055 13.1633 119.635 13.8093C120.215 14.4554 120.896 14.7826 121.691 14.7826V14.791C122.195 14.791 122.656 14.658 123.072 14.3962C123.487 14.1366 123.808 13.8157 124.029 13.4378H124.044L124.05 14.0205C124.05 14.4258 124.05 14.7087 124.05 14.791H124.059L126.399 14.8016V14.791H127.272V14.6855ZM123.993 13.0345C123.557 13.6109 123.108 13.9001 122.644 13.9043C122.18 13.9001 121.819 13.5961 121.566 12.9839C121.313 12.3674 121.187 11.6897 121.187 10.6425C121.187 8.72555 121.581 7.76707 122.374 7.76707C122.745 7.76707 123.063 7.97608 123.34 8.39832C123.614 8.82267 123.829 9.16468 123.993 9.73682V13.0366V13.0345Z" fill="#341756"/>
<path d="M72.7776 14.1239C72.6743 13.9381 72.6216 13.5729 72.6216 13.024L72.6005 7.2646C71.5168 7.58339 70.4478 7.77762 69.3936 7.84518V7.94863C69.7795 8.17875 70.024 8.40887 70.1273 8.63899C70.2307 8.86911 70.2834 9.30825 70.2834 9.95427V12.8086C69.8237 13.3364 69.3472 13.6045 68.8518 13.6045C68.5249 13.6045 68.2572 13.4863 68.0421 13.2393C67.8271 12.9944 67.7238 12.6292 67.7238 12.1478C67.7238 11.6052 67.7322 11.0099 67.7469 9.84449C67.7617 8.677 67.7701 7.81563 67.7701 7.25827C66.6948 7.57706 65.6174 7.77762 64.5422 7.85996V7.96341C64.9217 8.1872 65.1662 8.41732 65.2759 8.65377C65.3876 8.89234 65.4382 9.32936 65.4382 9.96905V12.4877C65.4382 13.3132 65.668 13.9001 66.1277 14.2485C66.5873 14.5968 67.1081 14.7763 67.6858 14.7763C68.2635 14.7763 68.8138 14.62 69.2734 14.3012C69.7331 13.9825 70.0894 13.632 70.3487 13.2456C70.3487 13.3238 70.3487 13.4019 70.3487 13.4758V14.7974H73.5704V14.6939C73.1909 14.4934 72.8809 14.3076 72.7755 14.1218L72.7776 14.1239Z" fill="#341756"/>
<path d="M137.567 14.7995C137.025 14.7995 136.644 14.6665 136.429 14.3392C136.214 14.012 136.117 13.6341 136.14 13.2097H136.125C135.901 13.6341 135.56 14.0057 135.094 14.3245C134.626 14.6433 134.084 14.7995 133.468 14.7995C132.853 14.7995 132.355 14.6369 131.984 14.3097C131.613 13.9824 131.427 13.5581 131.427 13.0472C131.427 12.2956 131.836 11.6643 132.644 11.1513C133.454 10.6383 134.626 10.1844 136.154 9.79171L136.184 8.72344C136.192 8.43421 136.125 8.17242 135.984 7.95074C135.842 7.72696 135.621 7.61717 135.315 7.61717C134.862 7.61717 134.499 7.86207 134.232 8.35187C133.964 8.84167 133.787 9.42225 133.69 10.0915L133.616 10.1063L132.005 9.13302C132.279 8.61999 132.718 8.17453 133.325 7.80296C133.934 7.43139 134.691 7.2456 135.589 7.2456C136.161 7.2456 136.644 7.32794 137.036 7.48417C137.43 7.6404 137.719 7.85574 137.904 8.13019C138.09 8.40465 138.217 8.68122 138.284 8.96201C138.351 9.24491 138.381 9.40536 138.373 9.72626L138.299 13.3385C138.299 13.6721 138.446 13.8811 138.691 13.8727C138.965 13.8727 139.188 13.6721 139.359 13.271L139.486 13.3301C139.353 13.746 139.123 14.1028 138.796 14.392C138.47 14.6813 138.065 14.7995 137.569 14.7995H137.567ZM134.757 13.5307C135.239 13.5307 135.684 13.2773 136.093 12.7727L136.152 10.1274C134.615 10.6024 133.844 11.354 133.844 12.38C133.844 12.7432 133.926 13.0261 134.097 13.2266C134.267 13.4272 134.483 13.5307 134.757 13.5307Z" fill="#341756"/>
</svg>
